<svg xmlns="http://www.w3.org/2000/svg" viewBox="0 0 286.11 114.45"><defs><style>.a{fill:none;}.b{fill:#0072bc;}</style></defs><title>unhcr-visibility-horizontal</title><rect class="a" width="286.11" height="114.45"/><path class="b" d="M63.11,66.81c.64,0,.56-.36.56-1v-3.3c0-.68-.07-.9.32-.9,1.36,0,1.73-.13,1.73-1.33V48c0-3.34-2.36-2.79-3-4-1-1.65,1.76-1.65.78-5.23a2.35,2.35,0,0,0-4.22,0c-1,3.58,1.73,3.58.78,5.23-.67,1.22-3,.67-3,4V60.24c0,1.2.36,1.33,1.73,1.33.38,0,.32.22.32.9v3.3c0,.68-.08,1,.56,1h3.48"/><path class="b" d="M52.37,40.2c-1.21,1.28-3.11,4.28-1.87,6.77C53,48,52.84,39,56,39.11c1.56,1.44-.47,5.68-1.09,7.55-.78,2.3-1.4,7.12-2.88,9.46-1.24,2-.31,8.06-.7,10.16-1,1-3.89.31-5.1.11,0-2.41-.32-4.31-.7-8.17,0-.78-.86-12.69-.2-14.13,1.37-3,8.8-8.72,9.82-9.81s4-4.2,5.25-4.2c.85.58.35,2,.16,2.49-1.21,3-6.43,6-8.18,7.63"/><path class="b" d="M70.51,40.2c1.16,1.28,3.07,4.28,1.86,6.77-2.56,1-2.37-8-5.52-7.86-1.52,1.44.5,5.68,1.13,7.55.78,2.3,1.4,7.12,2.87,9.46,1.21,2,.31,8.06.67,10.16,1.09,1,3.89.31,5.13.11a81.44,81.44,0,0,1,.67-8.17c.07-.78.89-12.69.23-14.13-1.36-3-8.79-8.72-9.81-9.81s-4-4.2-5.25-4.2c-.89.58-.35,2-.16,2.49,1.21,3,6.43,6,8.18,7.63"/><path class="b" d="M41.56,36.16c-.66.63-2.15,1.06-3.16,2.42C38,37.84,39,36.05,40.23,35a14.58,14.58,0,0,1,3.16-2.07c.39.89-1,2.26-1.83,3.23"/><path class="b" d="M39.49,41c-1.13,1.05-2.34,1.48-3.9,3.39a11.53,11.53,0,0,1-.2-5.69c.55-1.8,1.45-3.79,3-4.41a17.2,17.2,0,0,0-.94,4.33c-.66,2.61-1.05,2.69-.89,3,.15,0,1-1.36,2.06-2.42C39.84,38,41.4,37.76,42.41,37a13.08,13.08,0,0,1-2.92,4"/><path class="b" d="M34,51.84a14,14,0,0,1-1.79-7c.08-1.6.86-5.3,2-5.85-.35,3.36.55,3.67.2,6.44,0,.15-.39,3-.39,3.19.47-.07,0-2.65,5.38-6.35-1.17,2-.62,2.65-2.73,5.34A9.68,9.68,0,0,0,34,51.84"/><path class="b" d="M36.14,54.42a7.39,7.39,0,0,0-1.21,3.23c-2.7-1.56-5.74-7.75-4.61-10.84.71,2.34,1.68,2.85,2.38,4.8,1.21,2.92,1,3.82,1.8,4.48a10.83,10.83,0,0,1,.86-4.64,27.87,27.87,0,0,1,1.87-3.12c.58,2.15.15,3.9-1.09,6.09"/><path class="b" d="M38.56,59.72a34.4,34.4,0,0,1-.63,5.19c-4.64-1.52-7.06-6.83-7.06-9.44,1.41,3.2,3.47,3.16,6.17,7.68.23-1.71-.48-.43-.55-3.66.07-3.4.78-3.51.89-5.62.86.94,1.18,4.68,1.18,5.85"/><path class="b" d="M42.41,66.47c.36,1.75.51,3.82.79,5.34-2.65-1-3.32-.23-6.48-2.22-1.44-.78-4-4.06-3.86-6.4,3.12,3.47,3.67,3.08,5.19,4.37,1.4,1.13,2.53,2.81,3.55,2.58.07-.94-2.3-3-2-8.82a16.16,16.16,0,0,1,2.8,5.15"/><path class="b" d="M47.68,70.84c.82,1.17.62,1.67,2.73,4.09A23.31,23.31,0,0,1,44.91,76c-1.32,0-6-1.24-7.56-4.44C40,73,40.08,72.67,43.66,73.45c2.58.58,4.41,1.4,5.11,1.33-.15-.35-2.14-1.18-3.51-2.89s-1-3.9-2.26-5.42c.82-.24,4,3.51,4.68,4.37"/><path class="b" d="M81.1,36.16c.62.63,2.15,1.06,3.12,2.42.43-.74-.62-2.53-1.83-3.58a12.71,12.71,0,0,0-3.16-2.07c-.39.89,1,2.26,1.87,3.23"/><path class="b" d="M83.17,41c1.09,1.05,2.3,1.48,3.86,3.39a11.65,11.65,0,0,0,.2-5.69c-.51-1.8-1.45-3.79-3-4.41a15.6,15.6,0,0,1,.94,4.33c.66,2.61,1,2.69.89,3-.15,0-1-1.36-2.07-2.42C82.82,38,81.25,37.76,80.21,37a13.54,13.54,0,0,0,3,4"/><path class="b" d="M88.63,51.84a13.85,13.85,0,0,0,1.8-7c-.09-1.6-.87-5.3-2-5.85.32,3.36-.58,3.67-.19,6.44,0,.15.35,3,.35,3.19-.43-.07,0-2.65-5.34-6.35,1.13,2,.58,2.65,2.69,5.34a9.27,9.27,0,0,1,2.69,4.25"/><path class="b" d="M86.52,54.42a7.71,7.71,0,0,1,1.17,3.23c2.7-1.56,5.77-7.75,4.6-10.84-.66,2.34-1.67,2.85-2.33,4.8-1.25,2.92-1.06,3.82-1.8,4.48a11,11,0,0,0-.9-4.64,22.87,22.87,0,0,0-1.87-3.12,7.42,7.42,0,0,0,1.13,6.09"/><path class="b" d="M84.07,59.72a32.8,32.8,0,0,0,.66,5.19c4.6-1.52,7.06-6.83,7.06-9.44-1.45,3.2-3.48,3.16-6.2,7.68-.24-1.71.46-.43.54-3.66-.08-3.4-.78-3.51-.9-5.62-.85.94-1.16,4.68-1.16,5.85"/><path class="b" d="M80.21,66.47c-.36,1.75-.47,3.82-.74,5.34,2.61-1,3.27-.23,6.43-2.22,1.44-.78,4.06-4.06,3.9-6.4-3.12,3.47-3.7,3.08-5.18,4.37C83.21,68.69,82,70.37,81,70.14c-.07-.94,2.3-3,2-8.82a15.4,15.4,0,0,0-2.84,5.15"/><path class="b" d="M74.94,70.84a17.15,17.15,0,0,1-2.73,4.09A23.64,23.64,0,0,0,77.75,76c1.28,0,6-1.24,7.52-4.44C82.59,73,82.54,72.67,79,73.45c-2.58.58-4.37,1.4-5.11,1.33.15-.35,2.18-1.18,3.51-2.89s1-3.9,2.3-5.42c-.86-.24-4,3.51-4.72,4.37"/><path class="b" d="M54.66,81.83l-.78-.39a17.13,17.13,0,0,1,13.46-5.57c8.5.47,7.91,2.46,12.47,2.14.51,0-.38.63-.38.63a15.78,15.78,0,0,1-10-.16c-5.46-1.87-9-3-14.82,3.35"/><path class="b" d="M68.11,81.83l.79-.39a17,17,0,0,0-13.42-5.57c-8.54.47-8,2.46-12.52,2.14-.51,0,.39.63.39.63a15.77,15.77,0,0,0,9.95-.16c5.49-1.87,9-3,14.81,3.35"/><path class="b" d="M128.39,55.53c0,8.15-4.41,12.06-13.38,12.06S101.6,63.68,101.6,55.53v-18h9.05v16c0,3,0,6.75,4.4,6.75s4.28-3.75,4.28-6.75v-16h9.06v18"/><polygon class="b" points="133.82 37.51 143.07 37.51 151.63 53.23 151.72 53.23 151.72 37.51 160.28 37.51 160.28 66.89 151.47 66.89 142.46 50.84 142.38 50.84 142.38 66.89 133.82 66.89 133.82 37.51"/><polygon class="b" points="165.83 37.51 174.88 37.51 174.88 47.72 183.36 47.72 183.36 37.51 192.41 37.51 192.41 66.89 183.36 66.89 183.36 55.24 174.88 55.24 174.88 66.89 165.83 66.89 165.83 37.51"/><path class="b" d="M215.58,48.46a4.71,4.71,0,0,0-4.73-4.32c-4.24,0-5.6,4.11-5.6,8.06s1.36,8.07,5.6,8.07c3.05,0,4.24-2.14,4.77-4.9h8.89c0,5.92-4.81,12.22-13.41,12.22-9.51,0-14.9-6.71-14.9-15.39,0-9.26,5.84-15.39,14.9-15.39,8.06,0,12.51,4.28,13.29,11.65h-8.81"/><path class="b" d="M237.35,44.5h4.24c3.46,0,4.48,1.07,4.48,2.93,0,2.63-2.3,2.92-4,2.92h-4.73Zm-9.06,22.39h9.06V56.65h4.82c3.57,0,3.82,2.92,4.07,5.72a20.51,20.51,0,0,0,.74,4.52h9c-.82-1.36-.86-4.85-1-6.29-.33-3.67-1.85-6.38-4.32-7.33,3-1.11,4.41-4.32,4.41-7.36,0-5.56-4.45-8.4-9.59-8.4H228.29V66.89"/><polygon class="b" points="104.54 73.64 101.59 73.64 101.59 71.82 109.66 71.82 109.66 73.64 106.71 73.64 106.71 81.67 104.54 81.67 104.54 73.64"/><path class="b" d="M110.33,71.82h2v3.71h0a2.5,2.5,0,0,1,2.08-1.18c2.09,0,2.61,1.17,2.61,2.93v4.39h-2v-4c0-1.17-.34-1.75-1.25-1.75-1.06,0-1.52.59-1.52,2v3.74h-2V71.82"/><path class="b" d="M119.82,78.58c.05,1.24.66,1.8,1.75,1.8a1.6,1.6,0,0,0,1.54-.92h1.73a3.22,3.22,0,0,1-3.34,2.4,3.48,3.48,0,0,1-3.64-3.75,3.57,3.57,0,0,1,3.64-3.76c2.43,0,3.6,2,3.46,4.23ZM123,77.34c-.18-1-.6-1.52-1.56-1.52a1.53,1.53,0,0,0-1.62,1.52H123"/><path class="b" d="M137.68,78c0,2.66-1.58,4-4.21,4s-4.19-1.28-4.19-4V71.82h2.16V78c0,1.07.28,2.13,2,2.13,1.54,0,2-.67,2-2.13V71.82h2.17V78"/><polygon class="b" points="139.12 71.82 141.27 71.82 145.38 78.43 145.41 78.43 145.41 71.82 147.44 71.82 147.44 81.67 145.27 81.67 141.18 75.08 141.15 75.08 141.15 81.67 139.12 81.67 139.12 71.82"/><path class="b" d="M154.32,73.51h2.37c1,0,1.49.41,1.49,1.36s-.53,1.41-1.49,1.41h-2.37Zm-2.17,8.16h2.17V77.82h2.16c1.09,0,1.49.46,1.64,1.49a11,11,0,0,0,.35,2.36h2.16a5.47,5.47,0,0,1-.41-2.33c-.07-1-.37-2-1.44-2.3v0a2.42,2.42,0,0,0,1.56-2.47,2.7,2.7,0,0,0-2.88-2.72h-5.31v9.85"/><path class="b" d="M163.27,77.34a1.53,1.53,0,0,1,1.62-1.52c1,0,1.38.53,1.56,1.52Zm5.14,1.24c.14-2.19-1-4.23-3.46-4.23a3.57,3.57,0,0,0-3.64,3.76A3.48,3.48,0,0,0,165,81.86a3.2,3.2,0,0,0,3.33-2.4h-1.72a1.61,1.61,0,0,1-1.54.92c-1.09,0-1.7-.56-1.75-1.8h5.14"/><path class="b" d="M169.7,75.85h-1.17V74.54h1.17V74a2.09,2.09,0,0,1,2.38-2.17c.35,0,.71.05,1,.06v1.46a5.69,5.69,0,0,0-.72,0c-.52,0-.74.22-.74.81v.43H173v1.31h-1.35v5.82h-2V75.85"/><path class="b" d="M180.3,81.67h-1.86v-1h0a2.55,2.55,0,0,1-2.18,1.19c-2.08,0-2.61-1.17-2.61-2.94V74.54h2v4c0,1.18.35,1.76,1.26,1.76s1.51-.6,1.51-2V74.54h2v7.13"/><path class="b" d="M184.81,80c-1.2,0-1.59-1.12-1.59-2.14s.49-2,1.59-2c1.27,0,1.67,1,1.67,2.19a1.76,1.76,0,0,1-1.67,2m3.53-5.45h-1.86v.95h0a2.2,2.2,0,0,0-2.12-1.14c-2,0-3.06,1.68-3.06,3.53s.91,3.58,3,3.58a2.42,2.42,0,0,0,2.14-1.1h0v.94c0,1-.49,1.76-1.57,1.76a1.34,1.34,0,0,1-1.47-1H181.5c.1,1.63,1.74,2.29,3.14,2.29,3.29,0,3.7-2,3.7-3.16V74.54"/><path class="b" d="M191.28,77.34a1.53,1.53,0,0,1,1.62-1.52c.95,0,1.38.53,1.56,1.52Zm5.14,1.24c.14-2.19-1-4.23-3.46-4.23a3.57,3.57,0,0,0-3.64,3.76A3.48,3.48,0,0,0,193,81.86a3.2,3.2,0,0,0,3.33-2.4h-1.72a1.62,1.62,0,0,1-1.54.92c-1.09,0-1.7-.56-1.75-1.8h5.14"/><path class="b" d="M198.94,77.34a1.55,1.55,0,0,1,1.63-1.52c1,0,1.38.53,1.56,1.52Zm5.14,1.24c.14-2.19-1-4.23-3.46-4.23A3.57,3.57,0,0,0,197,78.11a3.48,3.48,0,0,0,3.64,3.75,3.21,3.21,0,0,0,3.34-2.4h-1.72a1.62,1.62,0,0,1-1.55.92c-1.09,0-1.69-.56-1.75-1.8h5.14"/><path class="b" d="M213,74.25h0l1.24,3.61h-2.55Zm-4.81,7.42h2.19l.78-2.19h3.68l.74,2.19h2.25l-3.68-9.85H212Z"/><path class="b" d="M221.54,80c-1.2,0-1.59-1.12-1.59-2.14s.48-2,1.59-2c1.27,0,1.67,1,1.67,2.19a1.77,1.77,0,0,1-1.67,2m3.53-5.45h-1.86v.95h0a2.21,2.21,0,0,0-2.12-1.14c-2,0-3.07,1.68-3.07,3.53s.91,3.58,3,3.58a2.42,2.42,0,0,0,2.14-1.1h0v.94c0,1-.49,1.76-1.58,1.76a1.33,1.33,0,0,1-1.46-1h-1.94c.1,1.63,1.74,2.29,3.14,2.29,3.28,0,3.7-2,3.7-3.16V74.54"/><path class="b" d="M228,77.34a1.55,1.55,0,0,1,1.63-1.52c1,0,1.38.53,1.56,1.52Zm5.15,1.24c.13-2.19-1-4.23-3.46-4.23a3.57,3.57,0,0,0-3.64,3.76,3.48,3.48,0,0,0,3.64,3.75,3.2,3.2,0,0,0,3.33-2.4H231.3a1.62,1.62,0,0,1-1.55.92c-1.08,0-1.69-.56-1.75-1.8h5.15"/><path class="b" d="M234,74.54h1.86v1h0a2.52,2.52,0,0,1,2.17-1.18c2.08,0,2.61,1.17,2.61,2.93v4.39h-2v-4c0-1.17-.34-1.75-1.25-1.75-1.07,0-1.52.59-1.52,2v3.74h-2V74.54"/><path class="b" d="M246.73,77.05a1.34,1.34,0,0,0-1.45-1.23c-1.25,0-1.67,1.27-1.67,2.32s.4,2.24,1.63,2.24a1.5,1.5,0,0,0,1.56-1.44h1.89a3.19,3.19,0,0,1-3.44,2.92,3.46,3.46,0,0,1-3.6-3.65,3.53,3.53,0,0,1,3.64-3.86c1.69,0,3.23.88,3.35,2.7h-1.91"/><path class="b" d="M253.06,82.56a2.25,2.25,0,0,1-2.46,1.62c-.4,0-.8,0-1.2-.07V82.5a10.79,10.79,0,0,0,1.15.06.92.92,0,0,0,.67-1.33l-2.51-6.69h2.1l1.61,4.88h0L254,74.54h2l-3,8"/></svg>